<?xml version="1.0" encoding="UTF-8" standalone="no"?>
<svg
   height="48"
   width="48"
   version="1.1"
   id="svg12"
   sodipodi:docname="copy.svg"
   inkscape:version="1.2.1 (9c6d41e410, 2022-07-14)"
   xmlns:inkscape="http://www.inkscape.org/namespaces/inkscape"
   xmlns:sodipodi="http://sodipodi.sourceforge.net/DTD/sodipodi-0.dtd"
   xmlns="http://www.w3.org/2000/svg"
   xmlns:svg="http://www.w3.org/2000/svg">
  <defs
     id="defs16" />
  <sodipodi:namedview
     id="namedview14"
     pagecolor="#505050"
     bordercolor="#eeeeee"
     borderopacity="1"
     inkscape:showpageshadow="0"
     inkscape:pageopacity="0"
     inkscape:pagecheckerboard="0"
     inkscape:deskcolor="#505050"
     showgrid="false"
     inkscape:zoom="17.645833"
     inkscape:cx="23.971665"
     inkscape:cy="24.028335"
     inkscape:window-width="2560"
     inkscape:window-height="1027"
     inkscape:window-x="-8"
     inkscape:window-y="-8"
     inkscape:window-maximized="1"
     inkscape:current-layer="svg12" />
  <path
     fill="#8A8A8A"
     d="M9 43.95q-1.2 0-2.1-.9-.9-.9-.9-2.1V10.8h3v30.15h23.7v3Zm6-6q-1.2 0-2.1-.9-.9-.9-.9-2.1v-28q0-1.2.9-2.1.9-.9 2.1-.9h22q1.2 0 2.1.9.9.9.9 2.1v28q0 1.2-.9 2.1-.9.9-2.1.9Zm0-3h22v-28H15v28Zm0 0v-28 28Z"
     id="path10" />
  <path
     style="fill:#e6e6e6;stroke-width:0.0566706"
     d="m 14.507674,37.876616 c -0.95789,-0.157048 -1.924892,-0.988942 -2.329614,-2.004125 l -0.135557,-0.340023 -0.01585,-14.337663 c -0.01157,-10.472417 0.0014,-14.4418522 0.04829,-14.7241425 0.171024,-1.0305928 1.067092,-2.0498962 2.076007,-2.3615184 0.364075,-0.112451 0.511129,-0.1138667 11.828199,-0.1138667 10.324347,0 11.490034,0.00896 11.767349,0.090411 0.997733,0.2930612 1.868956,1.16966 2.127492,2.1406193 0.06449,0.242206 0.07755,2.7017512 0.07811,14.7157413 5.95e-4,12.799191 -0.0092,14.462643 -0.08649,14.759558 -0.27336,1.049497 -1.328611,2.00507 -2.406347,2.179043 -0.464833,0.07503 -22.492937,0.07116 -22.951594,-0.004 z M 37.005903,20.968123 V 6.9421488 H 25.983471 14.961039 V 20.968123 34.994097 h 11.022432 11.022432 z"
     id="path206" />
  <path
     style="fill:#ffffff;stroke-width:0.0566706"
     d="M 8.6422668,43.888955 C 7.3725057,43.721938 6.2403166,42.61511 6.0651248,41.36954 6.0296693,41.11746 6.0089197,35.482644 6.0082064,25.912633 L 6.0070838,10.85242 h 1.4733306 1.4733305 l 0.014273,15.060213 0.014273,15.060212 11.8583231,0.0143 11.858323,0.0143 v 1.473303 1.473303 l -11.858323,-0.0072 c -6.522077,-0.004 -12.0113337,-0.02731 -12.1983467,-0.05191 z"
     id="path208" />
  <path
     style="fill:#ffffff;stroke-width:0.0566706"
     d="m 14.451004,37.825968 c -0.359888,-0.0635 -0.654459,-0.198686 -1.057545,-0.485319 -0.473745,-0.336879 -0.827018,-0.755646 -1.096905,-1.300262 l -0.225716,-0.45548 V 21.105422 c 0,-12.8189185 0.01,-14.5176906 0.08677,-14.8126303 0.215826,-0.8286137 0.853379,-1.6016891 1.642766,-1.9919634 l 0.446084,-0.2205449 4.93344,-0.05031 c 2.873164,-0.0293 7.773414,-0.0293 11.733911,0 l 6.800473,0.05031 0.431095,0.2058738 c 0.507644,0.2424302 1.1196,0.7901819 1.394132,1.2478636 0.384046,0.6402548 0.357059,-0.5212443 0.356591,15.3476482 -2.83e-4,8.767529 -0.02133,14.494823 -0.05407,14.694253 -0.155601,0.947968 -1.141202,1.949264 -2.186778,2.221602 -0.294185,0.07663 -1.655618,0.08599 -11.641192,0.08011 -6.219426,-0.0037 -11.422805,-0.02691 -11.563064,-0.05166 z M 37.005903,20.968123 V 6.9421488 H 25.983471 14.961039 V 20.968123 34.994097 h 11.022432 11.022432 z"
     id="path285" />
  <path
     style="fill:#ffffff;stroke-width:0.0566706"
     d="M 19.069658,43.891258 C 10.439524,43.86725 8.4301744,43.847723 8.2455726,43.786068 7.2186709,43.443095 6.3087833,42.464553 6.1303252,41.511216 6.0918154,41.305494 6.0598319,36.040879 6.0362494,26.025974 L 6.0005196,10.85242 H 7.4772373 8.9539551 V 25.9268 41.001181 H 20.826446 32.698937 v 1.473435 1.473436 l -1.515938,-0.01366 c -0.833766,-0.0075 -6.28477,-0.02692 -12.113341,-0.04314 z"
     id="path287" />
  <path
     style="fill:#ffffff;stroke-width:0.0566706"
     d="M 19.069658,43.891258 C 10.439524,43.86725 8.4301744,43.847723 8.2455726,43.786068 7.2193049,43.443307 6.311847,42.46792 6.1291493,41.511216 6.0891115,41.301556 6.0569927,36.232583 6.0310293,26.025974 L 5.9924312,10.85242 h 1.480762 1.4807619 V 25.9268 41.001181 H 20.826446 32.698937 v 1.473435 1.473436 l -1.515938,-0.01366 c -0.833766,-0.0075 -6.28477,-0.02692 -12.113341,-0.04314 z"
     id="path289" />
</svg>
