<?xml version="1.0" encoding="UTF-8" standalone="no"?>
<svg
   height="48"
   width="48"
   version="1.1"
   id="svg310"
   sodipodi:docname="renew.svg"
   inkscape:version="1.2.1 (9c6d41e410, 2022-07-14)"
   xmlns:inkscape="http://www.inkscape.org/namespaces/inkscape"
   xmlns:sodipodi="http://sodipodi.sourceforge.net/DTD/sodipodi-0.dtd"
   xmlns="http://www.w3.org/2000/svg"
   xmlns:svg="http://www.w3.org/2000/svg">
  <defs
     id="defs314" />
  <sodipodi:namedview
     id="namedview312"
     pagecolor="#505050"
     bordercolor="#eeeeee"
     borderopacity="1"
     inkscape:showpageshadow="0"
     inkscape:pageopacity="0"
     inkscape:pagecheckerboard="0"
     inkscape:deskcolor="#505050"
     showgrid="false"
     inkscape:zoom="17.645833"
     inkscape:cx="23.971665"
     inkscape:cy="24.028335"
     inkscape:window-width="2560"
     inkscape:window-height="1027"
     inkscape:window-x="-8"
     inkscape:window-y="-8"
     inkscape:window-maximized="1"
     inkscape:current-layer="svg310" />
  <path
     fill="#8A8A8A"
     d="M9.8 31.45q-1-1.8-1.4-3.625Q8 26 8 24.1q0-6.55 4.725-11.275Q17.45 8.1 24 8.1h2.15l-4-4 1.95-1.95 7.45 7.45-7.45 7.45-2-2 3.95-3.95H24q-5.35 0-9.175 3.825Q11 18.75 11 24.1q0 1.45.275 2.75t.675 2.45ZM23.8 46l-7.45-7.45 7.45-7.45 1.95 1.95-4 4H24q5.35 0 9.175-3.825Q37 29.4 37 24.05q0-1.45-.25-2.75T36 18.85l2.15-2.15q1 1.8 1.425 3.625Q40 22.15 40 24.05q0 6.55-4.725 11.275Q30.55 40.05 24 40.05h-2.25l4 4Z"
     id="path308" />
  <path
     style="fill:#ffffff;stroke-width:0.0566706"
     d="M 9.4084061,30.616293 C 8.804777,29.342573 8.438214,28.097283 8.1781435,26.436836 8.0316904,25.501791 8.031478,22.727243 8.1777877,21.789847 c 0.5474342,-3.507375 1.9153493,-6.209526 4.4564353,-8.803152 2.611289,-2.665282 5.432083,-4.1412709 8.969248,-4.6931859 0.611212,-0.095369 1.11476,-0.1228737 2.672973,-0.1460027 l 1.919892,-0.028498 -2.004645,-2.0052419 -2.004645,-2.005242 0.963331,-0.9633316 0.963332,-0.9633317 3.697573,3.6978968 3.697574,3.6978967 -3.711904,3.7115793 -3.711903,3.711579 -0.977335,-0.977335 -0.977335,-0.977335 1.983217,-1.988312 1.983216,-1.988312 -1.785124,0.0269 c -1.909342,0.02877 -2.498095,0.093 -3.683589,0.401849 -2.127835,0.554351 -4.050501,1.670042 -5.723228,3.321095 -2.089483,2.062409 -3.295437,4.345226 -3.772141,7.140496 -0.124324,0.729002 -0.172925,2.749203 -0.0861,3.578999 0.100351,0.95909 0.399551,2.308698 0.750226,3.384056 l 0.117699,0.360929 -1.040527,1.041668 c -0.57229,0.572917 -1.0561055,1.041668 -1.0751464,1.041668 -0.019041,0 -0.1947536,-0.337898 -0.3904725,-0.750885 z"
     id="path370" />
  <path
     style="fill:#ffffff;stroke-width:0.0566706"
     d="m 20.073406,42.231612 -3.699588,-3.699911 3.712026,-3.683937 3.712026,-3.683936 0.950659,0.951895 0.95066,0.951895 -1.968839,1.969442 c -1.082861,1.083193 -1.968839,1.988434 -1.968839,2.011645 0,0.0627 2.421514,0.05109 3.264498,-0.01566 3.145787,-0.249077 5.680116,-1.400694 7.974582,-3.623705 2.1783,-2.110465 3.395172,-4.398749 3.873614,-7.284195 0.146227,-0.88189 0.146253,-3.342253 4.5e-5,-4.273181 -0.128004,-0.815021 -0.376343,-1.782432 -0.630853,-2.457515 L 36.04617,18.871311 37.078,17.837072 c 0.567507,-0.568831 1.049153,-1.034238 1.070325,-1.034238 0.05563,0 0.584565,1.102864 0.849605,1.771488 0.42452,1.070952 0.761284,2.531432 0.896376,3.887408 0.08445,0.84761 0.07086,2.579321 -0.02711,3.456308 -0.411707,3.685332 -2.066981,6.953055 -4.88497,9.64355 -2.602995,2.485227 -5.489952,3.88901 -8.921737,4.338194 -0.450117,0.05892 -1.343346,0.102652 -2.499685,0.122396 -0.989611,0.0169 -1.799292,0.04631 -1.799292,0.06537 0,0.01905 0.885974,0.920888 1.96883,2.004076 l 1.968829,1.969433 -0.933947,0.935235 c -0.513671,0.514379 -0.94706,0.935235 -0.963088,0.935235 -0.01603,0 -1.693956,-1.66496 -3.728729,-3.699911 z"
     id="path372" />
</svg>
